<svg width="32" height="32" viewBox="0 0 32 32" fill="none" xmlns="http://www.w3.org/2000/svg">
<rect width="32" height="32" rx="10" fill="#DA3743"/>
<path fill-rule="evenodd" clip-rule="evenodd" d="M5 15.9997C5 14.8951 5.87559 14.0001 6.95615 14.0001C8.0367 14.0001 8.91289 14.8951 8.91289 15.9997C8.91289 17.1043 8.0367 17.9999 6.95615 17.9999C5.87559 17.9999 5 17.1043 5 15.9997M18.7418 17.9999C17.6618 17.9999 16.7856 17.1043 16.7856 15.9997C16.7856 14.8951 17.6618 14.0001 18.7418 14.0001C19.8223 14.0001 20.6985 14.8951 20.6985 15.9997C20.6985 17.1043 19.8223 17.9999 18.7418 17.9999M18.7423 8C14.4201 8 10.9159 11.582 10.9159 15.9997C10.9159 20.418 14.4201 24 18.7423 24C23.0645 24 26.5681 20.418 26.5681 15.9997C26.5681 11.582 23.0645 8 18.7423 8" fill="white"/>
</svg>
