<svg width="32" height="32" viewBox="0 0 32 32" fill="none" xmlns="http://www.w3.org/2000/svg">
<rect width="32" height="32" rx="10" fill="#3E34EB"/>
<g clip-path="url(#clip0_2_9)">
<path fill-rule="evenodd" clip-rule="evenodd" d="M24.9318 16.8391C25.052 12.4455 24.3294 9.87594 23.3975 8.51817C23.3899 8.50443 23.3814 8.49117 23.3721 8.47849C22.846 7.72874 22.2592 7.36024 21.719 7.26103L21.6581 7.25252C21.6186 7.24969 21.5789 7.24969 21.5393 7.25252C20.0263 7.36591 17.802 11.9948 17.802 11.9948C16.5622 11.8765 15.3141 11.8765 14.0744 11.9948C14.0744 11.9948 11.6705 6.98465 10.1574 7.26103C8.64429 7.5374 6.80315 9.94114 6.99122 16.8476C6.99122 16.8476 5.95752 17.793 6.00136 18.384C6.04236 18.8545 6.7183 19.2344 6.7183 19.2344C6.7183 19.2344 6.06499 19.9572 6.30963 20.86C6.73143 22.3095 9.12692 23.3422 10.4742 23.7967C14.2399 25.0496 17.9816 25.0766 21.7473 23.8237C23.1805 23.3474 24.8036 22.447 25.4904 21.0486C25.5031 21.0245 25.5129 21.0017 25.5214 20.9819C25.5299 20.9621 25.5342 20.9521 25.5399 20.9394L25.5498 20.9096C25.5498 20.8995 25.5539 20.8899 25.558 20.8806C25.5602 20.8756 25.5624 20.8706 25.5639 20.8657C25.5818 20.7966 25.596 20.7265 25.6063 20.6559C25.6253 20.5037 25.6229 20.3497 25.5992 20.1982C25.5922 20.1585 25.5851 20.1187 25.5766 20.0805C25.5644 20.0238 25.5489 19.968 25.53 19.9132C25.4485 19.6672 25.3213 19.4388 25.1552 19.24H25.1623C25.2047 19.2259 25.8241 19.0104 25.9697 18.452C25.9865 18.3895 25.9964 18.3253 25.9994 18.2607V18.2394C26.0291 17.5549 24.9318 16.8391 24.9318 16.8391V16.8391ZM12.6369 15.5996C13.2348 15.721 13.5836 16.489 13.4159 17.315C13.2481 18.1409 12.6273 18.7121 12.0294 18.5906C11.4314 18.4692 11.0827 17.7012 11.2504 16.8752C11.4182 16.0493 12.0389 15.4781 12.6369 15.5996V15.5996ZM18.5838 17.315C18.416 16.489 18.7648 15.721 19.3628 15.5996C19.9608 15.4781 20.5815 16.0493 20.7492 16.8752C20.917 17.7012 20.5682 18.4692 19.9702 18.5906C19.3722 18.7121 18.7515 18.1409 18.5838 17.315ZM15.9999 18.0834C17.0824 18.0834 17.9582 18.6494 17.9582 19.3483C17.9582 19.7816 17.3442 20.4547 16.6305 20.6391C16.2318 20.7376 15.814 20.7267 15.4209 20.6077C14.6575 20.4233 14.0416 19.7835 14.0416 19.3502C14.0416 18.6494 14.9175 18.0834 15.9999 18.0834ZM19.1355 20.1724C19.1141 20.1344 19.0822 20.1033 19.043 20.0842C19.0037 20.065 18.9595 20.0583 18.9163 20.065C18.8731 20.0716 18.8331 20.0912 18.8013 20.1212C18.7696 20.1512 18.7477 20.1901 18.7386 20.2329L18.7364 20.2435V20.2602C18.69 20.5259 18.6119 20.7852 18.5039 21.0324C18.4153 21.2239 18.2748 21.3867 18.0985 21.5025C17.8824 21.6235 17.6464 21.7049 17.4016 21.7428C17.3283 21.7505 17.2552 21.7619 17.184 21.773L17.1794 21.7736C17.1092 21.7846 17.0406 21.7953 16.9712 21.8031C16.8161 21.8111 16.6614 21.8277 16.5081 21.8527H16.496L16.4866 21.8544C16.4418 21.8627 16.4009 21.8852 16.3699 21.9184C16.3388 21.9517 16.3192 21.994 16.3139 22.0392C16.3087 22.0844 16.3181 22.1302 16.3407 22.1697C16.3633 22.2092 16.398 22.2404 16.4397 22.2587L16.4417 22.2596C16.5978 22.3243 16.7577 22.3793 16.9205 22.4242L16.9261 22.4256C17.0939 22.462 17.2636 22.4885 17.4344 22.505L17.4377 22.5053C17.8217 22.5301 18.2051 22.4473 18.5447 22.2663L18.5465 22.2654C18.7324 22.1617 18.8943 22.02 19.0218 21.8495C19.1458 21.6818 19.2349 21.4903 19.2831 21.2874L19.2841 21.2831C19.3024 21.1883 19.3152 21.0926 19.3225 20.9963L19.3229 20.9893C19.3236 20.8956 19.3184 20.802 19.3074 20.7089C19.2854 20.5206 19.227 20.3384 19.1355 20.1724Z" fill="white"/>
</g>
<defs>
<clipPath id="clip0_2_9">
<rect width="20" height="17.5" fill="white" transform="translate(6 7.25)"/>
</clipPath>
</defs>
</svg>
