<svg width="32" height="32" viewBox="0 0 32 32" fill="none" xmlns="http://www.w3.org/2000/svg">
<rect width="32" height="32" rx="10" fill="black"/>
<path fill-rule="evenodd" clip-rule="evenodd" d="M21.4273 7.06783L6.34399 15.7762C5.65644 16.1731 5.42087 17.0523 5.81783 17.7398L8.1095 21.7091C8.50645 22.3967 9.38561 22.6322 10.0732 22.2353L14.3852 19.7457L16.8748 24.0578C17.2718 24.7453 18.1509 24.9809 18.8385 24.5839L22.8078 22.2923C23.4953 21.8953 23.7309 21.0162 23.3339 20.3286L20.8443 16.0165L25.1564 13.5269C25.844 13.13 26.0795 12.2508 25.6826 11.5633L23.3909 7.59399C22.994 6.90644 22.1148 6.67087 21.4273 7.06783ZM17.9788 10.2616L21.9481 7.96994C22.1374 7.86063 22.3795 7.9255 22.4888 8.11482L24.7805 12.0841C24.8898 12.2734 24.8249 12.5155 24.6356 12.6248L20.6663 14.9165C20.477 15.0258 20.2349 14.9609 20.1256 14.7716L17.8339 10.8023C17.7246 10.613 17.7895 10.3709 17.9788 10.2616ZM12.4218 13.4699L16.3911 11.1783C16.5804 11.069 16.8225 11.1338 16.9318 11.3232L19.2235 15.2924C19.3328 15.4818 19.2679 15.7239 19.0786 15.8332L15.1093 18.1248C14.92 18.2341 14.6779 18.1693 14.5686 17.9799L12.2769 14.0107C12.1676 13.8213 12.2325 13.5792 12.4218 13.4699ZM6.86482 16.6783L10.8341 14.3866C11.0234 14.2773 11.2655 14.3422 11.3748 14.5315L13.6665 18.5008C13.7758 18.6901 13.7109 18.9322 13.5216 19.0415L9.55232 21.3332C9.363 21.4425 9.12091 21.3776 9.01161 21.1883L6.71994 17.219C6.61063 17.0297 6.6755 16.7876 6.86482 16.6783ZM15.6302 19.0269L19.5994 16.7353C19.7888 16.626 20.0308 16.6908 20.1402 16.8802L22.4318 20.8494C22.5411 21.0388 22.4763 21.2808 22.2869 21.3902L18.3177 23.6818C18.1283 23.7911 17.8862 23.7263 17.7769 23.5369L15.4853 19.5677C15.376 19.3783 15.4408 19.1362 15.6302 19.0269Z" fill="white"/>
</svg>
